<svg xmlns="http://www.w3.org/2000/svg" viewBox="0 0 32 32"><line x1="16" y1="13" x2="16" y2="26" stroke="#447566" stroke-width="0.55" stroke-linecap="round"/><circle cx="16" cy="26" r="0.77" fill="#447566"/><line x1="16" y1="13" x2="16.0" y2="2.0" stroke="#447566" stroke-width="0.55" stroke-linecap="round"/><circle cx="16.0" cy="2.0" r="0.66" fill="#447566"/><line x1="16" y1="13" x2="20.2" y2="2.8" stroke="#447566" stroke-width="0.55" stroke-linecap="round"/><circle cx="20.2" cy="2.8" r="0.66" fill="#447566"/><line x1="16" y1="13" x2="23.8" y2="5.2" stroke="#447566" stroke-width="0.55" stroke-linecap="round"/><circle cx="23.8" cy="5.2" r="0.66" fill="#447566"/><line x1="16" y1="13" x2="26.2" y2="8.8" stroke="#447566" stroke-width="0.55" stroke-linecap="round"/><circle cx="26.2" cy="8.8" r="0.66" fill="#447566"/><line x1="16" y1="13" x2="27.0" y2="13.0" stroke="#447566" stroke-width="0.55" stroke-linecap="round"/><circle cx="27.0" cy="13.0" r="0.66" fill="#447566"/><line x1="16" y1="13" x2="26.2" y2="17.2" stroke="#447566" stroke-width="0.55" stroke-linecap="round"/><circle cx="26.2" cy="17.2" r="0.66" fill="#447566"/><line x1="16" y1="13" x2="23.8" y2="20.8" stroke="#447566" stroke-width="0.55" stroke-linecap="round"/><circle cx="23.8" cy="20.8" r="0.66" fill="#447566"/><line x1="16" y1="13" x2="20.2" y2="23.2" stroke="#447566" stroke-width="0.55" stroke-linecap="round"/><circle cx="20.2" cy="23.2" r="0.66" fill="#447566"/><line x1="16" y1="13" x2="16.0" y2="24.0" stroke="#447566" stroke-width="0.55" stroke-linecap="round"/><circle cx="16.0" cy="24.0" r="0.66" fill="#447566"/><line x1="16" y1="13" x2="11.8" y2="23.2" stroke="#447566" stroke-width="0.55" stroke-linecap="round"/><circle cx="11.8" cy="23.2" r="0.66" fill="#447566"/><line x1="16" y1="13" x2="8.2" y2="20.8" stroke="#447566" stroke-width="0.55" stroke-linecap="round"/><circle cx="8.2" cy="20.8" r="0.66" fill="#447566"/><line x1="16" y1="13" x2="5.8" y2="17.2" stroke="#447566" stroke-width="0.55" stroke-linecap="round"/><circle cx="5.8" cy="17.2" r="0.66" fill="#447566"/><line x1="16" y1="13" x2="5.0" y2="13.0" stroke="#447566" stroke-width="0.55" stroke-linecap="round"/><circle cx="5.0" cy="13.0" r="0.66" fill="#447566"/><line x1="16" y1="13" x2="5.8" y2="8.8" stroke="#447566" stroke-width="0.55" stroke-linecap="round"/><circle cx="5.8" cy="8.8" r="0.66" fill="#447566"/><line x1="16" y1="13" x2="8.2" y2="5.2" stroke="#447566" stroke-width="0.55" stroke-linecap="round"/><circle cx="8.2" cy="5.2" r="0.66" fill="#447566"/><line x1="16" y1="13" x2="11.8" y2="2.8" stroke="#447566" stroke-width="0.55" stroke-linecap="round"/><circle cx="11.8" cy="2.8" r="0.66" fill="#447566"/><circle cx="16" cy="13" r="1.10" fill="#447566"/></svg>