<svg xmlns="http://www.w3.org/2000/svg" width="120" height="120" viewBox="0 0 32 32"><line x1="16" y1="13" x2="16" y2="26" stroke="#447566" stroke-width="0.55" stroke-linecap="round"/><circle cx="16" cy="26" r="0.77" fill="#447566"/><line x1="16" y1="13" x2="16.0" y2="2.0" stroke="#447566" stroke-width="0.49" stroke-linecap="round"/><circle cx="16.0" cy="2.0" r="0.60" fill="#447566"/><line x1="16" y1="13" x2="19.8" y2="2.7" stroke="#447566" stroke-width="0.49" stroke-linecap="round"/><circle cx="19.8" cy="2.7" r="0.60" fill="#447566"/><line x1="16" y1="13" x2="23.1" y2="4.6" stroke="#447566" stroke-width="0.49" stroke-linecap="round"/><circle cx="23.1" cy="4.6" r="0.60" fill="#447566"/><line x1="16" y1="13" x2="25.5" y2="7.5" stroke="#447566" stroke-width="0.49" stroke-linecap="round"/><circle cx="25.5" cy="7.5" r="0.60" fill="#447566"/><line x1="16" y1="13" x2="26.8" y2="11.1" stroke="#447566" stroke-width="0.49" stroke-linecap="round"/><circle cx="26.8" cy="11.1" r="0.60" fill="#447566"/><line x1="16" y1="13" x2="26.8" y2="14.9" stroke="#447566" stroke-width="0.49" stroke-linecap="round"/><circle cx="26.8" cy="14.9" r="0.60" fill="#447566"/><line x1="16" y1="13" x2="25.5" y2="18.5" stroke="#447566" stroke-width="0.49" stroke-linecap="round"/><circle cx="25.5" cy="18.5" r="0.60" fill="#447566"/><line x1="16" y1="13" x2="23.1" y2="21.4" stroke="#447566" stroke-width="0.49" stroke-linecap="round"/><circle cx="23.1" cy="21.4" r="0.60" fill="#447566"/><line x1="16" y1="13" x2="19.8" y2="23.3" stroke="#447566" stroke-width="0.49" stroke-linecap="round"/><circle cx="19.8" cy="23.3" r="0.60" fill="#447566"/><line x1="16" y1="13" x2="16.0" y2="24.0" stroke="#447566" stroke-width="0.49" stroke-linecap="round"/><circle cx="16.0" cy="24.0" r="0.60" fill="#447566"/><line x1="16" y1="13" x2="12.2" y2="23.3" stroke="#447566" stroke-width="0.49" stroke-linecap="round"/><circle cx="12.2" cy="23.3" r="0.60" fill="#447566"/><line x1="16" y1="13" x2="8.9" y2="21.4" stroke="#447566" stroke-width="0.49" stroke-linecap="round"/><circle cx="8.9" cy="21.4" r="0.60" fill="#447566"/><line x1="16" y1="13" x2="6.5" y2="18.5" stroke="#447566" stroke-width="0.49" stroke-linecap="round"/><circle cx="6.5" cy="18.5" r="0.60" fill="#447566"/><line x1="16" y1="13" x2="5.2" y2="14.9" stroke="#447566" stroke-width="0.49" stroke-linecap="round"/><circle cx="5.2" cy="14.9" r="0.60" fill="#447566"/><line x1="16" y1="13" x2="5.2" y2="11.1" stroke="#447566" stroke-width="0.49" stroke-linecap="round"/><circle cx="5.2" cy="11.1" r="0.60" fill="#447566"/><line x1="16" y1="13" x2="6.5" y2="7.5" stroke="#447566" stroke-width="0.49" stroke-linecap="round"/><circle cx="6.5" cy="7.5" r="0.60" fill="#447566"/><line x1="16" y1="13" x2="8.9" y2="4.6" stroke="#447566" stroke-width="0.49" stroke-linecap="round"/><circle cx="8.9" cy="4.6" r="0.60" fill="#447566"/><line x1="16" y1="13" x2="12.2" y2="2.7" stroke="#447566" stroke-width="0.49" stroke-linecap="round"/><circle cx="12.2" cy="2.7" r="0.60" fill="#447566"/><circle cx="16" cy="13" r="1.10" fill="#447566"/></svg>